<svg width="560" height="416" viewBox="0 0 560 416" fill="none" xmlns="http://www.w3.org/2000/svg">
<rect x="226.624" y="411.944" width="410.284" height="69.8913" rx="34.9456" transform="rotate(-90.0427 226.624 411.944)" stroke="#C31E54" stroke-width="3"/>
<path d="M271.46 387.53L271.449 372.885C271.445 367.396 269.235 365.871 266.57 365.873L266.251 365.874C263.267 365.876 262.29 368.359 261.994 369.521C261.743 368.701 260.899 366.834 258.69 366.836L258.371 366.836C256.367 366.838 254.5 368.183 254.503 373.034L254.514 387.543L271.46 387.53ZM258.08 373.943C258.079 372.462 258.716 372.097 259.423 372.097L259.468 372.097C260.151 372.096 260.835 372.46 260.836 373.941L260.842 382.231L258.086 382.233L258.08 373.943ZM264.434 373.482C264.433 371.729 265.276 371.386 266.004 371.386L266.096 371.386C266.779 371.385 267.758 371.726 267.76 373.48L267.766 382.226L264.441 382.229L264.434 373.482ZM259.686 358.646L254.493 358.65L254.497 363.957L271.442 363.944L271.434 352.054C271.428 344.994 268.831 343.356 265.642 343.358L265.414 343.358C262.271 343.361 259.676 345.048 259.681 352.04L259.686 358.646ZM267.612 358.64L263.489 358.643L263.485 352.197C263.483 349.578 264.325 348.894 265.487 348.893L265.555 348.893C266.671 348.892 267.605 349.575 267.607 352.194L267.612 358.64ZM254.476 336.579L254.48 341.886L271.426 341.873L271.422 336.566L254.476 336.579ZM271.707 322.066C271.7 312.386 266.961 310.704 264.82 310.705L264.57 310.706L264.574 316.331C264.961 316.468 267.581 317.012 267.585 322.502C267.589 327.444 264.948 328.79 262.943 328.791L262.67 328.792C260.552 328.793 258.273 327.633 258.27 322.554C258.266 317.179 260.634 316.494 261.089 316.357L261.085 310.731L260.834 310.731C258.853 310.733 254.162 312.262 254.169 322.079L254.17 323.013C254.178 333.034 259.485 334.351 262.56 334.349L263.221 334.349C266.227 334.346 271.715 332.816 271.708 323L271.707 322.066ZM254.151 297.298C254.159 308.025 259.512 309.229 262.542 309.226L263.225 309.226C266.209 309.224 271.697 308.012 271.689 297.285L271.688 296.305C271.68 285.623 266.19 284.397 263.206 284.399L262.523 284.4C259.494 284.402 254.142 285.659 254.15 296.318L254.151 297.298ZM263.006 289.957C264.964 289.956 267.562 291.115 267.566 296.809C267.57 302.549 264.906 303.667 262.97 303.669L262.697 303.669C260.761 303.67 258.255 302.647 258.25 296.816C258.246 291.077 260.751 289.959 262.687 289.957L263.006 289.957ZM271.371 267.978L271.366 261.054L262.172 271.265L254.42 261.522L254.425 268.264L261.493 276.937L254.432 276.942L254.436 282.249L271.382 282.236L271.378 276.93L263.383 276.935L271.371 267.978ZM264.43 245.9L264.435 252.323L258.078 249.185L264.43 245.9ZM271.352 242.342L271.347 236.625L254.408 245.703L254.414 252.581L271.366 261.133L271.362 255.734L268.263 254.211L268.255 243.939L271.352 242.342ZM265.322 220.16L271.335 220.156L271.331 214.849L254.385 214.861L254.396 228.755C254.4 234.404 257.112 236.11 259.777 236.108L260.05 236.108C262.692 236.106 264.763 234.464 265.056 229.909L271.348 236.714L271.342 229.927L265.325 223.645L265.322 220.16ZM261.564 220.163L261.57 228.431C261.571 229.957 260.843 230.572 259.909 230.573L259.886 230.573C258.998 230.574 258.246 229.982 258.245 228.433L258.239 220.165L261.564 220.163ZM266.069 183.049C264.178 183.05 262.54 184.691 262.292 188.062C262.039 184.851 260.443 183.508 258.849 183.51L258.599 183.51C256.207 183.512 254.204 185.654 254.21 193.489L254.211 194.628C254.215 200.618 256.314 204.944 260.141 204.941L260.551 204.941L260.546 199.361C258.474 199.362 257.948 196.721 257.946 193.828C257.943 190.184 258.489 188.954 259.4 188.953L259.468 188.953C260.356 188.952 260.722 190.091 260.724 192.756L260.727 197.766L264.394 197.764L264.391 192.73C264.389 189.929 264.82 188.516 265.936 188.515L266.005 188.515C267.121 188.514 267.76 189.949 267.762 193.684C267.765 197.488 266.878 199.424 264.942 199.426L264.946 205.006L265.197 205.006C269.866 205.003 271.526 200.583 271.521 194.524L271.52 193.294C271.514 185.003 269.098 183.046 266.297 183.049L266.069 183.049ZM264.372 167.496L264.377 173.919L258.02 170.781L264.372 167.496ZM271.293 163.938L271.289 158.221L254.35 167.299L254.355 174.177L271.307 182.729L271.303 177.331L268.205 175.807L268.197 165.535L271.293 163.938ZM265.63 144.261C265.625 138.203 263.096 136.36 260.067 136.362L259.839 136.362C256.741 136.364 254.328 138.166 254.333 144.27L254.342 156.979L271.288 156.966L271.284 151.659L265.636 151.664L265.63 144.261ZM258.188 151.669L258.182 144.358C258.181 142.65 258.818 141.898 259.98 141.897L260.048 141.897C261.21 141.896 261.825 142.692 261.826 144.355L261.832 151.666L258.188 151.669ZM271.271 134.359L271.267 129.052L258.421 129.061L258.413 118.607L271.259 118.597L271.255 113.29L254.31 113.303L254.325 134.371L271.271 134.359ZM271.242 95.2694L271.238 89.9625L254.292 89.9751L254.306 108.082C263.234 108.076 265.58 108.302 266.446 108.984C266.925 109.371 267.039 109.872 267.04 110.692L267.04 111.034L271.254 111.031L271.253 109.55C271.251 106.794 270.544 105.679 269.245 104.814C267.923 103.973 266.488 103.336 258.174 103.342L258.168 95.2792L271.242 95.2694ZM264.302 73.4112L264.306 79.8342L257.949 76.6958L264.302 73.4112ZM271.223 69.8529L271.219 64.136L254.28 73.2137L254.285 80.0922L271.237 88.6436L271.233 83.2455L268.134 81.7218L268.127 71.4496L271.223 69.8529ZM271.215 59.5008L271.211 54.1483L258.274 54.1579L258.269 46.8466L254.26 46.8496L254.275 66.8019L258.284 66.7989L258.278 59.5104L271.215 59.5008ZM264.272 34.2649L264.277 40.6879L257.92 37.5494L264.272 34.2649ZM271.194 30.7065L271.19 24.9896L254.251 34.0673L254.256 40.9459L271.208 49.4972L271.204 44.0992L268.105 42.5755L268.097 32.3032L271.194 30.7065Z" fill="white"/>
<rect x="53.4656" y="199.034" width="228.826" height="69.8913" rx="34.9456" transform="rotate(46.5222 53.4656 199.034)" stroke="#C31E54" stroke-width="3"/>
<path d="M64.8588 250.732L61.1916 246.864L51.934 249.051L54.2803 239.576L50.0488 235.113L47.0876 248.938C47.0137 249.291 46.9582 249.563 46.7598 249.751L46.7433 249.767C46.5946 249.908 46.4005 249.935 46.0714 249.588L44.0184 247.423L41.0434 250.244L43.3315 252.657C45.5726 255.02 46.8196 254.78 50.0452 254.044L64.8588 250.732ZM54.4732 258.449L49.4322 263.229L52.9271 266.914L54.993 264.955L64.647 275.136L62.581 277.095L66.0759 280.781L71.1168 276.001L69.2361 274.018L78.5577 265.179L65.9575 251.89C60.6521 256.921 57.8145 259.424 55.962 260.019L54.4732 258.449ZM59.2531 263.49C60.9446 262.89 63.6987 260.498 66.2109 258.116L71.9312 264.149L65.5846 270.167L59.2531 263.49ZM83.796 285.268L79.3765 280.607L86.1504 278.515L83.796 285.268ZM81.2164 292.61L85.15 296.759L91.2092 278.521L86.4762 273.53L68.287 278.975L72.0013 282.892L75.2991 281.868L82.3671 289.322L81.2164 292.61ZM96.3568 308.577L100.008 312.428L112.305 300.768L99.8458 287.629C93.3669 293.772 91.5079 295.221 90.4097 295.321C89.7962 295.369 89.3687 295.084 88.8045 294.489L88.5695 294.241L85.5119 297.14L86.5305 298.215C88.4268 300.214 89.7071 300.538 91.2447 300.273C92.7832 299.976 94.2632 299.451 100.296 293.731L105.844 299.582L96.3568 308.577ZM114.357 302.932L102.06 314.592L114.504 327.715L117.363 325.004L108.524 315.682L110.54 313.77L119.019 322.712L121.828 320.047L113.35 311.106L115.168 309.382L123.85 318.538L126.643 315.89L114.357 302.932ZM116.192 329.496L119.844 333.347L124.687 328.755L132.523 337.019L127.68 341.611L131.332 345.462L143.628 333.802L139.977 329.951L135.498 334.198L127.662 325.934L132.141 321.687L128.489 317.836L116.192 329.496ZM143.152 357.927L147.916 362.952L147.572 349.216L159.899 350.961L155.26 346.069L144.166 344.63L149.289 339.772L145.638 335.921L133.341 347.581L136.993 351.432L142.794 345.931L143.152 357.927ZM163.371 369.187L158.951 364.527L165.725 362.435L163.371 369.187ZM160.791 376.53L164.725 380.678L170.784 362.441L166.051 357.449L147.862 362.895L151.576 366.812L154.874 365.788L161.942 373.242L160.791 376.53Z" fill="white"/>
<rect x="487.519" y="414.096" width="394.943" height="68.7014" rx="34.3507" transform="rotate(-89.6704 487.519 414.096)" stroke="#C31E54" stroke-width="3"/>
<path d="M531.81 377.433C531.865 367.754 527.138 366.041 524.997 366.029L524.746 366.027L524.714 371.653C525.1 371.792 527.716 372.353 527.685 377.842C527.656 382.785 525.006 384.113 523.002 384.102L522.729 384.1C520.611 384.088 518.34 382.914 518.369 377.834C518.4 372.459 520.772 371.79 521.229 371.656L521.261 366.03L521.011 366.028C519.029 366.017 514.328 367.516 514.272 377.333L514.267 378.266C514.209 388.288 519.508 389.639 522.583 389.657L523.243 389.661C526.25 389.678 531.748 388.184 531.804 378.367L531.81 377.433ZM531.687 347.299L531.717 341.992L514.772 341.894L514.741 347.201L525.905 358.631L514.676 358.566L514.645 363.873L531.591 363.971L531.621 358.664L520.504 347.234L531.687 347.299ZM531.821 323.97L531.852 318.663L514.906 318.566L514.802 336.673C523.73 336.724 526.075 336.966 526.936 337.654C527.412 338.044 527.523 338.546 527.519 339.366L527.517 339.707L531.73 339.731L531.739 338.251C531.755 335.495 531.055 334.375 529.762 333.502C528.446 332.652 527.014 332.006 518.701 331.958L518.748 323.895L531.821 323.97ZM520.146 310.376L514.953 310.346L514.923 315.653L531.868 315.75L531.937 303.861C531.977 296.8 529.39 295.146 526.202 295.127L525.974 295.126C522.831 295.108 520.225 296.778 520.184 303.771L520.146 310.376ZM528.073 310.421L523.95 310.398L523.987 303.952C524.002 301.333 524.849 300.654 526.01 300.661L526.079 300.661C527.195 300.668 528.125 301.356 528.11 303.976L528.073 310.421ZM531.999 293.097L532.029 287.79L525.356 287.752L525.421 276.363L532.095 276.402L532.125 271.095L515.18 270.997L515.149 276.304L521.322 276.34L521.256 287.728L515.084 287.692L515.053 292.999L531.999 293.097ZM525.297 254.492L525.26 260.915L518.923 257.735L525.297 254.492ZM532.241 250.979L532.274 245.262L515.276 254.229L515.237 261.108L532.133 269.769L532.164 264.371L529.075 262.827L529.134 252.555L532.241 250.979ZM526.356 228.758L532.369 228.793L532.399 223.486L515.454 223.388L515.374 237.282C515.341 242.93 518.042 244.654 520.707 244.669L520.98 244.671C523.622 244.686 525.704 243.058 526.026 238.505L532.273 245.351L532.312 238.564L526.336 232.243L526.356 228.758ZM522.598 228.736L522.55 237.004C522.541 238.53 521.809 239.141 520.875 239.136L520.852 239.135C519.964 239.13 519.216 238.534 519.225 236.985L519.272 228.717L522.598 228.736ZM532.541 198.857L532.581 191.933L523.32 202.084L515.633 192.291L515.594 199.033L522.605 207.751L515.544 207.711L515.513 213.017L532.459 213.115L532.489 207.808L524.495 207.762L532.541 198.857ZM515.399 181.422C515.337 192.15 520.683 193.388 523.712 193.405L524.395 193.409C527.379 193.427 532.875 192.251 532.937 181.523L532.942 180.544C533.004 169.862 527.522 168.6 524.538 168.583L523.855 168.579C520.826 168.562 515.466 169.784 515.405 180.443L515.399 181.422ZM524.301 174.14C526.26 174.151 528.85 175.327 528.817 181.021C528.784 186.761 526.113 187.862 524.177 187.851L523.903 187.849C521.967 187.838 519.468 186.798 519.501 180.968C519.535 175.228 522.046 174.127 523.982 174.138L524.301 174.14ZM532.728 166.405L532.757 161.303L521.027 161.236L532.795 154.63L532.812 151.783L521.12 145.042L532.85 145.109L532.88 139.871L515.935 139.773L515.893 147.039L526.405 152.976L515.825 158.769L515.782 166.308L532.728 166.405ZM526.051 123.331L526.014 129.754L519.678 126.574L526.051 123.331ZM532.996 119.818L533.028 114.101L516.031 123.069L515.991 129.947L532.887 138.608L532.919 133.21L529.83 131.666L529.889 121.394L532.996 119.818ZM533.035 112.915L533.066 107.608L526.392 107.57L526.458 96.1814L533.131 96.2198L533.162 90.913L516.216 90.8155L516.186 96.1223L522.358 96.1578L522.293 107.546L516.12 107.51L516.09 112.817L533.035 112.915ZM529.073 89.0851L536.019 89.1251L536.049 84.046L533.201 84.0296L533.282 69.9994L536.129 70.0158L536.158 64.9367L529.212 64.8968L529.196 67.6299L516.35 67.556L516.245 85.8681C523.556 85.9101 527.336 86.0685 529.085 86.9213L529.073 89.0851ZM529.113 82.1383C527.477 81.4001 523.834 81.2197 520.372 81.1998L520.419 72.8864L529.165 72.9368L529.113 82.1383ZM526.476 49.4322L526.439 55.8551L520.103 52.6754L526.476 49.4322ZM533.421 45.9189L533.454 40.2021L516.456 49.1695L516.416 56.048L533.313 64.7093L533.344 59.3113L530.255 57.7675L530.314 47.4954L533.421 45.9189Z" fill="white"/>
<rect x="401.811" y="412.869" width="256.154" height="69.8913" rx="34.9456" transform="rotate(-90.1236 401.811 412.869)" stroke="#C31E54" stroke-width="3"/>
<path d="M446.397 387.469L446.366 372.824C446.354 367.335 444.141 365.814 441.477 365.82L441.158 365.82C438.174 365.827 437.2 368.311 436.906 369.474C436.654 368.654 435.807 366.788 433.598 366.793L433.279 366.794C431.275 366.798 429.41 368.146 429.42 372.997L429.452 387.506L446.397 387.469ZM432.998 373.901C432.995 372.42 433.632 372.054 434.338 372.053L434.384 372.053C435.067 372.051 435.751 372.414 435.754 373.895L435.772 382.185L433.016 382.191L432.998 373.901ZM439.352 373.431C439.348 371.678 440.19 371.334 440.919 371.333L441.01 371.332C441.693 371.331 442.674 371.671 442.677 373.424L442.696 382.171L439.371 382.178L439.352 373.431ZM429.401 363.851L446.346 363.815L446.307 345.73L442.367 345.739L442.395 358.585L439.616 358.591L439.59 346.269L435.718 346.277L435.744 358.599L433.239 358.604L433.211 345.986L429.362 345.995L429.401 363.851ZM446.274 330.27L446.263 324.963L429.317 325L429.328 330.307L436.435 330.292C436.779 331.589 436.828 333.024 436.83 334.14C436.837 337.192 436.362 338.878 433.697 338.884L429.347 338.894L429.358 344.201L434.984 344.188C439.539 344.179 440.945 341.055 440.933 335.475C440.928 333.266 440.72 331.649 440.443 330.283L446.274 330.27ZM429.311 322.014L446.256 321.977L446.217 303.893L442.277 303.901L442.305 316.747L439.526 316.753L439.499 304.431L435.627 304.439L435.654 316.761L433.148 316.767L433.121 304.149L429.272 304.157L429.311 322.014ZM440.536 288.673C440.523 282.614 437.991 280.775 434.961 280.781L434.734 280.782C431.636 280.788 429.226 282.593 429.239 288.697L429.266 301.406L446.212 301.37L446.2 296.063L440.552 296.075L440.536 288.673ZM433.104 296.091L433.088 288.78C433.084 287.072 433.721 286.319 434.882 286.316L434.95 286.316C436.112 286.313 436.729 287.109 436.732 288.772L436.748 296.083L433.104 296.091ZM446.127 262.09L446.116 256.783L429.17 256.819L429.181 262.126L440.435 273.467L429.206 273.492L429.217 278.799L446.163 278.762L446.152 273.455L434.944 262.114L446.127 262.09ZM446.109 253.862L446.098 248.555L439.424 248.569L439.4 237.181L446.073 237.167L446.062 231.86L429.116 231.896L429.128 237.203L435.3 237.19L435.325 248.578L429.152 248.591L429.164 253.898L446.109 253.862ZM446.025 214.681L446.01 207.757L436.83 217.981L429.065 208.249L429.08 214.991L436.159 223.654L429.098 223.669L429.11 228.976L446.056 228.939L446.044 223.632L438.05 223.65L446.025 214.681ZM445.971 189.902L445.96 184.595L429.014 184.632L429.026 189.939L440.279 201.28L429.05 201.304L429.062 206.611L446.007 206.575L445.996 201.268L434.788 189.926L445.971 189.902Z" fill="white"/>
<rect x="314.998" y="412.87" width="233.926" height="69.8913" rx="34.9456" transform="rotate(-90.1085 314.998 412.87)" stroke="#C31E54" stroke-width="3"/>
<path d="M341.665 373.833C341.686 384.56 347.04 385.757 350.07 385.752L350.753 385.75C353.737 385.745 359.223 384.527 359.203 373.799L359.201 372.82C359.181 362.138 353.69 360.918 350.706 360.924L350.023 360.925C346.993 360.931 341.643 362.194 341.663 372.853L341.665 373.833ZM350.511 366.482C352.47 366.478 355.069 367.635 355.08 373.329C355.091 379.069 352.428 380.19 350.492 380.193L350.218 380.194C348.282 380.198 345.775 379.177 345.764 373.347C345.753 367.607 348.257 366.486 350.193 366.482L350.511 366.482ZM358.879 358.752L358.855 346.407C358.842 339.346 356.538 337.71 353.463 337.716L353.236 337.717C350.229 337.722 348.046 339.412 348.059 346.404L348.072 353.465L345.499 353.47L345.471 338.961L341.895 338.968L341.933 358.784L358.879 358.752ZM355.179 353.452L351.648 353.458L351.635 346.443C351.63 343.961 352.29 343.253 353.314 343.251L353.383 343.251C354.385 343.249 355.161 343.954 355.165 346.436L355.179 353.452ZM341.852 316.382L341.863 321.712L350.094 326.479L341.882 331.756L341.893 337.906L353.54 329.889C353.835 329.684 354.063 329.524 354.336 329.523L354.359 329.523C354.564 329.523 354.724 329.637 354.725 330.115L354.73 333.099L358.83 333.091L358.824 329.765C358.817 326.508 357.746 325.827 354.895 324.147L341.852 316.382ZM358.771 302.174L358.761 296.867L341.816 296.899L341.826 302.206L348.932 302.192C349.276 303.49 349.324 304.925 349.326 306.041C349.332 309.093 348.857 310.779 346.192 310.784L341.842 310.792L341.852 316.099L347.478 316.089C352.033 316.08 353.439 312.957 353.429 307.377C353.425 305.167 353.216 303.551 352.941 302.185L358.771 302.174ZM341.81 293.913L358.756 293.88L358.721 275.796L354.781 275.803L354.805 288.649L352.027 288.655L352.003 276.332L348.131 276.34L348.155 288.662L345.649 288.667L345.625 276.048L341.776 276.056L341.81 293.913ZM358.717 273.341L358.707 268.034L352.033 268.047L352.012 256.659L358.685 256.646L358.675 251.339L341.729 251.371L341.739 256.678L347.912 256.667L347.933 268.055L341.761 268.067L341.771 273.373L358.717 273.341ZM358.638 231.746L358.628 226.439L341.682 226.472L341.692 231.779L352.943 243.123L341.714 243.144L341.724 248.451L358.67 248.419L358.659 243.112L347.455 231.768L358.638 231.746ZM341.677 223.482L358.622 223.45L358.588 205.366L354.648 205.373L354.672 218.219L351.893 218.224L351.87 205.902L347.998 205.91L348.021 218.232L345.516 218.236L345.492 205.618L341.643 205.626L341.677 223.482Z" fill="white"/>
</svg>
