<?xml version="1.0" encoding="utf-8"?><svg viewBox="0 0 560 416" xmlns="http://www.w3.org/2000/svg" xmlns:xlink="http://www.w3.org/1999/xlink"><style>:root>svg{display:none}:root>svg:target{display:block}</style><svg fill="none" viewBox="0 0 288 240" id="big-arrow" xmlns="http://www.w3.org/2000/svg"><path d="M.831 121.232c.054-9.42 7.737-17.011 17.157-16.952l176.079 1.098a17.025 17.025 0 0 1 11.826 4.881c6.817 6.698 6.761 17.722-.098 24.383a17.11 17.11 0 0 1-12.013 4.835L17.774 138.38C8.361 138.321.777 130.645.831 121.232Z" stroke="#C31E54" stroke-width="1.46"/><path d="m20.293 122.565-.017 2.927 2.583.015.047-8.248-6.762-.039c-2.75-.016-3.588 1.299-3.596 2.596v.133c-.008 1.286.784 2.299 3 2.456l-3.332 3.041 3.304.019 3.077-2.91 1.696.01Zm.01-1.829-4.024-.023c-.743-.004-1.04-.361-1.037-.815v-.011c.002-.433.293-.797 1.046-.793l4.025.023-.01 1.619Zm10.863 4.818 2.605.015.036-6.296 3.559.02.011-1.951-9.711-.056-.011 1.951 3.547.021-.036 6.296Zm12.448-8.32c-5.221-.03-5.824 2.571-5.833 4.046l-.002.332c-.008 1.453.564 4.128 5.786 4.158l.476.002c5.2.03 5.814-2.638 5.822-4.09l.002-.333c.008-1.474-.586-4.083-5.774-4.113l-.477-.002Zm3.545 4.332c-.006.954-.578 2.214-3.35 2.198-2.793-.016-3.33-1.316-3.324-2.258v-.133c.006-.942.512-2.159 3.35-2.143 2.794.016 3.33 1.239 3.325 2.181l-.001.155Zm10.061 4.138 2.583.015.047-8.248-2.583-.015-.02 3.459c-.632.162-1.33.181-1.874.178-1.485-.009-2.304-.247-2.297-1.544l.012-2.117-2.583-.015-.016 2.738c-.012 2.218 1.502 2.914 4.218 2.929a12.517 12.517 0 0 0 2.53-.218l-.017 2.838Zm4.003.023 2.583.015.019-3.248 5.543.031-.019 3.249 2.583.014.048-8.248-2.583-.014-.018 3.004-5.543-.032.018-3.004-2.583-.015-.048 8.248Zm17.689-8.291c-5.222-.03-5.824 2.572-5.833 4.046l-.002.333c-.008 1.452.564 4.127 5.785 4.157l.477.003c5.2.03 5.813-2.638 5.822-4.091l.002-.332c.008-1.475-.587-4.083-5.775-4.113l-.476-.003Zm3.544 4.333c-.005.953-.578 2.214-3.35 2.198-2.793-.016-3.329-1.316-3.323-2.258v-.133c.006-.943.512-2.159 3.35-2.143 2.794.016 3.33 1.239 3.324 2.181v.155Zm7.364 4.122 2.583.015.018-3.248 5.543.032-.019 3.248 2.583.014.048-8.247-2.583-.015-.017 3.004-5.543-.032.017-3.004-2.583-.015-.047 8.248Zm21.8-8.123-2.594-.015-2.351 3.989-2.538-4.017-2.993-.017 3.858 5.698c.099.145.176.256.175.389v.011c0 .1-.056.177-.289.176l-1.452-.008-.012 1.995 1.619.009c1.585.01 1.921-.51 2.749-1.891l3.828-6.319Zm6.819 8.287 2.583.015.021-3.658 3.671 3.679 3.37.02-4.531-4.494 4.357-3.755-3.282-.019-3.577 3.183.019-3.204-2.583-.015-.019 3.204-3.54-3.224-3.281-.019 4.312 3.805-4.582 4.442 3.371.019 3.712-3.637-.021 3.658Zm10.375-8.188-.048 8.248 8.802.05.012-1.918-6.253-.036.008-1.352 5.997.034.011-1.884-5.997-.035.007-1.219 6.141.035.011-1.873-8.691-.05Zm9.949 8.305 2.583.015.019-3.248 5.543.031-.019 3.249 2.583.014.048-8.247-2.583-.015-.018 3.004-5.543-.032.018-3.004-2.583-.015-.048 8.248Zm15.796.091 7.128.041c2.672.015 3.421-1.056 3.428-2.353l.001-.155c.008-1.453-1.197-1.936-1.762-2.084.4-.119 1.311-.524 1.318-1.6v-.155c.006-.975-.643-1.888-3.004-1.902l-7.062-.04-.047 8.248Zm6.655-6.47c.721.004.897.316.895.659v.023c-.002.332-.182.664-.902.66l-4.036-.024.008-1.341 4.035.023Zm.204 3.094c.854.005 1.018.416 1.016.771v.045c-.002.332-.171.808-1.025.803l-4.257-.024.009-1.619 4.257.024Zm11.118.109-3.126-.018 1.548-3.084 1.578 3.102Zm1.71 3.38 2.783.016-4.365-8.274-3.348-.019-4.216 8.224 2.628.015.751-1.503 5 .029.767 1.512Zm3.393.019 2.484.014.032-5.709 3.216 5.728 1.385.008 3.282-5.691-.033 5.71 2.549.014.048-8.248-3.536-.02-2.89 5.116-2.82-5.149-3.669-.021-.048 8.248Zm16.24 1.18c.246-.354.526-.973.529-1.416l.009-1.608-2.672-.015-.011 1.94 1.153.007c-.057.343-.226.719-.416 1.084l1.408.008Z" fill="#fff"/><rect x="-.027" y="1.031" width="122.757" height="34.734" rx="17.367" transform="rotate(46.458 84.915 198.948) skewX(-.129)" stroke="#C31E54" stroke-width="1.46"/><rect x="1.033" y=".027" width="165.518" height="34.729" rx="17.365" transform="rotate(-43.413 340.416 -71.157) skewX(.129)" stroke="#C31E54" stroke-width="1.46"/><path d="m161.866 23.593 1.779 1.872 4.542-4.297 3.506 3.689-4.542 4.297 1.779 1.872 5.992-5.668-7.065-7.433-5.991 5.668Zm14.325 11.082c2.031 2.138 3.544 1.943 4.615.93l.08-.077c1.096-1.036 1.346-2.478-.701-4.632l-4.261-4.484-5.992 5.669 1.78 1.872 1.997-1.89 2.482 2.612Zm.151-5.103 2.452 2.58c.572.602.599 1.08.188 1.47l-.024.022c-.411.389-.895.313-1.453-.273l-2.451-2.58 1.288-1.219Zm11.062 8.711c-3.597-3.785-5.894-2.42-6.965-1.407l-.241.229c-1.055.998-2.591 3.26 1.006 7.045l.328.345c3.582 3.77 5.935 2.367 6.99 1.369l.242-.229c1.071-1.013 2.543-3.245-1.031-7.006l-.329-.346Zm-.673 5.551c-.693.656-2 1.114-3.909-.895-1.925-2.025-1.357-3.31-.672-3.957l.096-.092c.685-.647 1.914-1.124 3.869.933 1.925 2.025 1.413 3.257.729 3.905l-.113.106Zm3.429 9.74c3.245 3.415 5.486 2.425 6.243 1.708l.088-.083-1.886-1.985c-.183.081-1.292.764-3.133-1.172-1.657-1.744-1.174-3.102-.465-3.773l.097-.09c.749-.71 1.943-1.062 3.647.73 1.802 1.897 1.193 2.93 1.078 3.131l1.887 1.985.088-.084c.701-.663 1.848-2.77-1.444-6.234l-.313-.33c-3.36-3.535-5.679-2.226-6.766-1.198l-.234.221c-1.063 1.006-2.492 3.38.799 6.844l.314.33Zm6.736 6.879 1.795 1.888 4.574-4.327 2.452 2.58 1.417-1.342-6.69-7.04-1.417 1.342 2.444 2.571-4.575 4.328Zm14.639 3.22c-3.597-3.785-5.895-2.42-6.966-1.407l-.241.229c-1.055.998-2.591 3.26 1.006 7.045l.328.345c3.582 3.77 5.935 2.367 6.99 1.369l.242-.229c1.071-1.013 2.543-3.245-1.031-7.006l-.328-.346Zm-.674 5.552c-.692.655-2 1.114-3.909-.895-1.925-2.025-1.357-3.31-.672-3.958l.096-.091c.685-.648 1.914-1.125 3.87.933 1.924 2.025 1.412 3.256.728 3.904l-.113.107Zm2.148 8.182 4.911 5.167c1.84 1.937 3.133 1.736 4.075.845l.113-.107c1.055-.998.569-2.202.284-2.71.364.205 1.288.582 2.069-.157l.113-.107c.709-.67.918-1.769-.708-3.48l-4.865-5.12-5.992 5.669Zm9.287.325c.496.522.393.864.143 1.1l-.016.016c-.241.228-.605.328-1.102-.194l-2.78-2.925.975-.922 2.78 2.925Zm-2.094 2.287c.588.618.404 1.02.147 1.264l-.033.031c-.241.229-.702.436-1.29-.183l-2.933-3.086 1.176-1.112 2.933 3.085Zm6.651 3.65 1.836-1.736-1.78-1.873-5.991 5.669 3.986 4.194c2.368 2.491 3.836 2.201 4.963 1.135l.081-.076c1.111-1.052 1.464-2.515-.881-4.982l-2.214-2.33Zm-2.803 2.652 1.458-1.38 2.161 2.275c.878.924.81 1.447.399 1.836l-.024.023c-.395.373-.954.444-1.832-.48l-2.162-2.274Zm12.039 3.398-1.779-1.872-5.992 5.668 1.78 1.873 5.991-5.669ZM165.954 222.415l1.876-1.775-4.307-4.532 3.697-3.497 4.307 4.532 1.876-1.775-5.682-5.979-7.449 7.048 5.682 5.978Zm6.703-17.894c-3.793 3.589-2.425 5.881-1.41 6.95l.229.241c1.001 1.052 3.268 2.585 7.061-1.003l.347-.328c3.776-3.573 2.371-5.921 1.37-6.974l-.229-.241c-1.015-1.069-3.253-2.538-7.022 1.028l-.346.327Zm5.564.673c.656.691 1.116 1.996-.897 3.9-2.029 1.92-3.317 1.353-3.967.67l-.091-.096c-.649-.683-1.127-1.91.935-3.86 2.029-1.92 3.264-1.41 3.913-.727l.107.113Zm10.579-4.393 2.448-2.316-6.693.167.85-5.993-2.384 2.255-.7 5.394-2.368-2.491-1.876 1.775 5.682 5.979 1.876-1.776-2.681-2.82 5.846-.174Zm5.486-9.83-2.271 2.149-1.019-3.294 3.29 1.145Zm3.578 1.255 2.021-1.913-8.887-2.946-2.432 2.301 2.654 8.843 1.909-1.806-.499-1.603 3.632-3.436 1.602.56Zm5.079-4.806 1.877-1.775-2.238-2.355 4.027-3.809 2.237 2.355 1.877-1.776-5.682-5.978-1.877 1.775 2.07 2.178-4.027 3.809-2.069-2.178-1.877 1.776 5.682 5.978Zm3.154-14.338 5.682 5.979 6.394-6.05-1.321-1.39-4.542 4.297-.931-.98 4.356-4.122-1.298-1.366-4.357 4.122-.84-.884 4.462-4.221-1.291-1.358-6.314 5.973Zm21.404-12.406c-.634-.667-1.764-.697-3.039.343 1.051-1.163.992-2.175.457-2.738l-.084-.088c-.802-.844-2.231-.835-5.001 1.786l-.403.381c-2.118 2.004-2.945 4.191-1.662 5.541l.137.144 1.973-1.866c-.695-.731.064-1.8 1.086-2.768 1.289-1.219 1.907-1.437 2.213-1.116l.023.024c.297.314.017.823-.925 1.715l-1.772 1.676 1.23 1.294 1.779-1.684c.991-.937 1.635-1.257 2.009-.863l.023.024c.375.394.081 1.099-1.24 2.348-1.344 1.272-2.327 1.607-2.976.924l-1.973 1.866.084.089c1.566 1.647 3.685.755 5.828-1.271l.434-.412c2.932-2.773 2.815-4.28 1.875-5.268l-.076-.081Zm2.55 1.098 1.876-1.775-2.237-2.355 4.026-3.809 2.238 2.354 1.876-1.775-5.682-5.979-1.876 1.776 2.07 2.177-4.027 3.81-2.07-2.178-1.876 1.775 5.682 5.979Zm11.314-15.344-2.271 2.149-1.019-3.293 3.29 1.144Zm3.578 1.255 2.021-1.913-8.887-2.946-2.432 2.301 2.654 8.843 1.909-1.805-.499-1.604 3.632-3.436 1.602.56Zm-3.217-8.311 5.682 5.979 6.394-6.05-1.321-1.39-4.542 4.297-.932-.98 4.357-4.122-1.298-1.366-4.357 4.122-.84-.884 4.461-4.221-1.29-1.358-6.314 5.973Zm15.233-3.057 1.892-1.791-4.338-4.564 2.586-2.446-1.345-1.414-7.054 6.674 1.344 1.414 2.577-2.438 4.338 4.565Zm-.409-10.968 5.682 5.979 6.394-6.049-1.321-1.391-4.542 4.297-.932-.98 4.357-4.122-1.298-1.366-4.357 4.122-.84-.884 4.461-4.221-1.29-1.358-6.314 5.973Z" fill="#fff"/></svg><svg fill="none" viewBox="0 0 136 136" id="circle" xmlns="http://www.w3.org/2000/svg"><path fill-rule="evenodd" clip-rule="evenodd" d="m81.232 14.779 5.168.995-6.301-8.379L88.48 2.98l-5.032-.97-7.485 4.057L76.972.763 73.012 0 70.59 12.729l3.96.763 1.143-6.005 5.538 7.292Zm-17.653-1.272-4.044.436-1.048-9.837-5.507.594-.324-3.049L67.731.025l.325 3.049-5.525.595 1.048 9.838Zm-30.213 3.074c-.968-2.102-1.846-6.204 5.55-9.654l.675-.315c7.35-3.428 9.923-.117 10.891 1.985l.218.474c.954 2.07 1.86 6.275-5.505 9.71l-.675.315c-7.396 3.45-9.982.03-10.936-2.041l-.218-.474Zm10.166-.5c3.926-1.83 3.897-4.006 3.271-5.365l-.102-.221c-.618-1.344-2.188-2.723-6.145-.877-4.02 1.875-3.926 3.943-3.308 5.286l.088.19c.618 1.343 2.24 2.833 6.196.988Zm61.297-.224c-1.096 2.037-3.244 3.065-7.292.858l-4.946-2.697-2.044 3.798L87 15.883l6.134-11.395 8.491 4.63c4.079 2.224 4.407 4.503 3.286 6.586l-.083.153Zm-4.657-4.184L95.287 9.01l-1.319 2.45 4.885 2.664c1.11.605 1.866.482 2.287-.299l.024-.046c.421-.78.149-1.483-.992-2.106Zm11.243 8.963 2.969-2.616-2.656-3.054-9.689 8.535 5.95 6.842c3.533 4.064 5.839 3.7 7.662 2.094l.13-.115c1.798-1.583 2.439-3.861-1.061-7.885l-3.305-3.801Zm-4.532 3.992 2.357-2.076 3.226 3.709c1.311 1.507 1.171 2.325.506 2.91l-.039.035c-.638.562-1.514.639-2.825-.869l-3.225-3.71Zm18.546 6.093-2.655-3.054-9.69 8.535 2.656 3.055 9.689-8.536Zm-5.682 18.847-1.453-3.823 9.182-3.535-1.979-5.206 2.845-1.096 5.416 14.253-2.845 1.095-1.984-5.223-9.182 3.535Zm11.997 10.144 3.946-.074-.075-4.058-12.874.24.167 9.091c.099 5.4 2.095 6.616 4.517 6.571l.173-.003c2.388-.044 4.337-1.37 4.239-6.717l-.093-5.05Zm-6.022.112 3.132-.059.091 4.93c.037 2.002-.594 2.536-1.476 2.553h-.052c-.848.017-1.567-.493-1.604-2.496l-.091-4.928ZM136 76.514l-.075-4.058-12.874.24.075 4.058 12.874-.24ZM123.889 87.02l-2.455-5.058 1.666-4.71 3.983 8.269 8.102-3.79-1.812 5.12-4.773 2.172 2.335 4.72-1.66 4.693-3.846-7.98-8.331 3.764 1.701-4.808 5.09-2.392ZM96.793 115.91l-10.349 4.121c-3.878 1.544-4.339 3.544-3.594 5.44l.09.226c.833 2.122 2.861 2.12 3.765 2.004-.51.409-1.594 1.534-.976 3.105l.09.227c.56 1.425 2.031 2.375 5.459 1.01l10.252-4.082-4.737-12.051Zm-5.87 13.334c-1.047.416-1.483.065-1.68-.437l-.013-.032c-.19-.486-.124-1.075.922-1.491l5.858-2.333.77 1.96-5.858 2.333Zm-2.1-4.391c-1.238.493-1.715-.01-1.92-.528l-.025-.065c-.19-.486-.223-1.279 1.016-1.772l6.18-2.461.93 2.365-6.18 2.461Zm-13.687 3.232-4.874.253L73 133.062l2.136-4.977Zm-12.18-4.671 4.339-.225 1.33 2.303 7.796-.404 1.037-2.426 4.096-.213-5.835 13.28-5.22.271-7.543-12.586Zm-10.701-2.783-5.087-1.352 5.711 8.797-8.664 3.822 4.953 1.317 7.745-3.527-1.37 5.221 3.9 1.036 3.287-12.53-3.899-1.036-1.551 5.911-5.025-7.659Zm-13.362-.008-4.097-2.67-.533 5.443 4.63-2.773Zm-7.15-10.968 3.647 2.377-.263 2.651 6.552 4.27 2.253-1.354 3.443 2.244-12.462 7.318-4.387-2.86 1.218-14.646Zm-.287-.013-2.488-3.194-3.99 3.15-5.34-6.854 3.99-3.15-2.489-3.193-10.132 7.998 2.488 3.193 3.69-2.913 5.341 6.854-3.69 2.913 2.488 3.193 10.132-7.997ZM9.432 79.561c1.543-.521 5.363-.451 7.702 6.568l.225.677c2.372 7.118-1.214 9.56-3.38 10.29l-.476.16c-2.215.749-6.357 1.081-8.779-6.185l-.225-.677c-2.372-7.118.64-9.366 2.067-9.848l.18-.06 1.36 4.078-.005.004c-.306.217-1.826 1.297-.533 5.175 1.227 3.683 3.149 3.972 4.675 3.457l.197-.067c1.444-.487 3.022-2.104 1.828-5.688-1.262-3.786-3.15-3.753-3.6-3.745h-.057l-1.36-4.079.181-.06Zm4.53-15.266.058-4.059-12.876-.186-.058 4.058 8.407 8.815-8.531-.124-.059 4.058 12.876.187.058-4.058-8.373-8.815 8.497.124Zm5.703-21.698-1.38 3.813-7.985-2.927 5.029 11.094-1.38 3.814-12.1-4.436L3.23 50.14l8.017 2.94-5.06-11.107 1.38-3.813 12.098 4.436ZM2.787 40.932c.813.298 2.35 1.752 1.367 4.468l-.202.557C2.88 48.919.846 48.84.032 48.543L0 48.53l1.019-2.815c.211.077.834.139 1.154-.745.308-.851-.202-1.224-.414-1.301l.996-2.75.032.012Z" fill="#C31E54"/></svg><svg fill="none" viewBox="0 0 30 24" id="envelope" xmlns="http://www.w3.org/2000/svg"><path d="M.001 0v3.116l15 8.662 15-8.662V0h-30Zm0 6.58V24h30V6.58l-15 8.66-15-8.66Z" fill="#fff"/></svg><svg fill="none" viewBox="0 0 73 73" id="icon-close" xmlns="http://www.w3.org/2000/svg"><path d="m3 3 67.5 67.5M70.5 3 3 70.5" stroke="#fff" stroke-width="6.045"/></svg><svg fill="none" viewBox="0 0 97 11" id="icon-minus" xmlns="http://www.w3.org/2000/svg"><path d="M.964.608v10.14h96.018V.608H.964Z" fill="#fff"/></svg><svg fill="none" viewBox="0 0 102 96" id="icon-plus" xmlns="http://www.w3.org/2000/svg"><path d="M2.964 42.608v10.14h96.018v-10.14H2.964Z" fill="#fff"/><path fill="#fff" d="M56 0v96H46V0z"/></svg><svg fill="none" viewBox="0 0 560 416" id="logo" xmlns="http://www.w3.org/2000/svg"><rect x="226.624" y="411.944" width="410.284" height="69.891" rx="34.946" transform="rotate(-90.043 226.624 411.944)" stroke="#C31E54" stroke-width="3"/><path d="m271.46 387.53-.011-14.645c-.004-5.489-2.214-7.014-4.879-7.012l-.319.001c-2.984.002-3.961 2.485-4.257 3.647-.251-.82-1.095-2.687-3.304-2.685h-.319c-2.004.002-3.871 1.347-3.868 6.198l.011 14.509 16.946-.013Zm-13.38-13.587c-.001-1.481.636-1.846 1.343-1.846h.045c.683-.001 1.367.363 1.368 1.844l.006 8.29-2.756.002-.006-8.29Zm6.354-.461c-.001-1.753.842-2.096 1.57-2.096h.092c.683-.001 1.662.34 1.664 2.094l.006 8.746-3.325.003-.007-8.747Zm-4.748-14.836-5.193.004.004 5.307 16.945-.013-.008-11.89c-.006-7.06-2.603-8.698-5.792-8.696h-.228c-3.143.003-5.738 1.69-5.733 8.682l.005 6.606Zm7.926-.006-4.123.003-.004-6.446c-.002-2.619.84-3.303 2.002-3.304h.068c1.116-.001 2.05.682 2.052 3.301l.005 6.446Zm-13.136-22.061.004 5.307 16.946-.013-.004-5.307-16.946.013Zm17.231-14.513c-.007-9.68-4.746-11.362-6.887-11.361l-.25.001.004 5.625c.387.137 3.007.681 3.011 6.171.004 4.942-2.637 6.288-4.642 6.289l-.273.001c-2.118.001-4.397-1.159-4.4-6.238-.004-5.375 2.364-6.06 2.819-6.197l-.004-5.626h-.251c-1.981.002-6.672 1.531-6.665 11.348l.001.934c.008 10.021 5.315 11.338 8.39 11.336h.661c3.006-.003 8.494-1.533 8.487-11.349l-.001-.934Zm-17.556-24.768c.008 10.727 5.361 11.931 8.391 11.928h.683c2.984-.002 8.472-1.214 8.464-11.941l-.001-.98c-.008-10.682-5.498-11.908-8.482-11.906l-.683.001c-3.029.002-8.381 1.259-8.373 11.918l.001.98Zm8.855-7.341c1.958-.001 4.556 1.158 4.56 6.852.004 5.74-2.66 6.858-4.596 6.86h-.273c-1.936.001-4.442-1.022-4.447-6.853-.004-5.739 2.501-6.857 4.437-6.859h.319Zm8.365-21.979-.005-6.924-9.194 10.211-7.752-9.743.005 6.742 7.068 8.673-7.061.005.004 5.307 16.946-.013-.004-5.306-7.995.005 7.988-8.957ZM264.43 245.9l.005 6.423-6.357-3.138 6.352-3.285Zm6.922-3.558-.005-5.717-16.939 9.078.006 6.878 16.952 8.552-.004-5.399-3.099-1.523-.008-10.272 3.097-1.597Zm-6.03-22.182 6.013-.004-.004-5.307-16.946.012.011 13.894c.004 5.649 2.716 7.355 5.381 7.353h.273c2.642-.002 4.713-1.644 5.006-6.199l6.292 6.805-.006-6.787-6.017-6.282-.003-3.485Zm-3.758.003.006 8.268c.001 1.526-.727 2.141-1.661 2.142h-.023c-.888.001-1.64-.591-1.641-2.14l-.006-8.268 3.325-.002Zm4.505-37.114c-1.891.001-3.529 1.642-3.777 5.013-.253-3.211-1.849-4.554-3.443-4.552h-.25c-2.392.002-4.395 2.144-4.389 9.979l.001 1.139c.004 5.99 2.103 10.316 5.93 10.313h.41l-.005-5.58c-2.072.001-2.598-2.64-2.6-5.533-.003-3.644.543-4.874 1.454-4.875h.068c.888-.001 1.254 1.138 1.256 3.803l.003 5.01 3.667-.002-.003-5.034c-.002-2.801.429-4.214 1.545-4.215h.069c1.116-.001 1.755 1.434 1.757 5.169.003 3.804-.884 5.74-2.82 5.742l.004 5.58h.251c4.669-.003 6.329-4.423 6.324-10.482l-.001-1.23c-.006-8.291-2.422-10.248-5.223-10.245h-.228Zm-1.697-15.553.005 6.423-6.357-3.138 6.352-3.285Zm6.921-3.558-.004-5.717-16.939 9.078.005 6.878 16.952 8.552-.004-5.398-3.098-1.524-.008-10.272 3.096-1.597Zm-5.663-19.677c-.005-6.058-2.534-7.901-5.563-7.899h-.228c-3.098.002-5.511 1.804-5.506 7.908l.009 12.709 16.946-.013-.004-5.307-5.648.005-.006-7.403Zm-7.442 7.408-.006-7.311c-.001-1.708.636-2.46 1.798-2.461h.068c1.162-.001 1.777.795 1.778 2.458l.006 7.311-3.644.003Zm13.083-17.31-.004-5.307-12.846.009-.008-10.454 12.846-.01-.004-5.307-16.945.013.015 21.068 16.946-.012Zm-.029-39.09-.004-5.306-16.946.012.014 18.107c8.928-.006 11.274.22 12.14.902.479.387.593.888.594 1.708v.342l4.214-.003-.001-1.481c-.002-2.756-.709-3.871-2.008-4.736-1.322-.841-2.757-1.478-11.071-1.472l-.006-8.063 13.074-.01Zm-6.94-21.858.004 6.423-6.357-3.138 6.353-3.285Zm6.921-3.558-.004-5.717-16.939 9.078.005 6.878 16.952 8.552-.004-5.398-3.099-1.524-.007-10.272 3.096-1.597Zm-.008-10.352-.004-5.353-12.937.01-.005-7.311-4.009.003.015 19.952 4.009-.003-.006-7.289 12.937-.01Zm-6.943-25.236.005 6.423-6.357-3.139 6.352-3.284Zm6.922-3.559-.004-5.716-16.939 9.077.005 6.879 16.952 8.551-.004-5.398-3.099-1.523-.008-10.273 3.097-1.596Z" fill="#fff"/><rect x="53.466" y="199.034" width="228.826" height="69.891" rx="34.946" transform="rotate(46.522 53.466 199.034)" stroke="#C31E54" stroke-width="3"/><path d="m64.859 250.732-3.667-3.868-9.258 2.187 2.346-9.475-4.231-4.463-2.961 13.825c-.074.353-.13.625-.328.813l-.017.016c-.148.141-.343.168-.672-.179l-2.053-2.165-2.975 2.821 2.288 2.413c2.242 2.363 3.489 2.123 6.714 1.387l14.814-3.312Zm-10.386 7.717-5.04 4.78 3.494 3.685 2.066-1.959 9.654 10.181-2.066 1.959 3.495 3.686 5.04-4.78-1.88-1.983 9.322-8.839-12.6-13.289c-5.306 5.031-8.143 7.534-9.996 8.129l-1.489-1.57Zm4.78 5.041c1.692-.6 4.446-2.992 6.958-5.374l5.72 6.033-6.346 6.018-6.332-6.677Zm24.543 21.778-4.42-4.661 6.774-2.092-2.354 6.753Zm-2.58 7.342 3.934 4.149 6.06-18.238-4.734-4.991-18.189 5.445 3.714 3.917 3.298-1.024 7.068 7.454-1.15 3.288Zm15.14 15.967 3.652 3.851 12.297-11.66-12.46-13.139c-6.478 6.143-8.337 7.592-9.435 7.692-.614.048-1.041-.237-1.605-.832l-.236-.248-3.057 2.899 1.019 1.075c1.896 1.999 3.176 2.323 4.714 2.058 1.538-.297 3.018-.822 9.051-6.542l5.548 5.851-9.487 8.995Zm18.001-5.645-12.297 11.66 12.444 13.123 2.859-2.711-8.839-9.322 2.016-1.912 8.479 8.942 2.809-2.665-8.478-8.941 1.818-1.724 8.682 9.156 2.793-2.648-12.286-12.958Zm1.835 26.564 3.652 3.851 4.843-4.592 7.836 8.264-4.843 4.592 3.652 3.851 12.296-11.66-3.651-3.851-4.479 4.247-7.836-8.264 4.479-4.247-3.652-3.851-12.297 11.66Zm26.96 28.431 4.764 5.025-.344-13.736 12.327 1.745-4.639-4.892-11.094-1.439 5.123-4.858-3.651-3.851-12.297 11.66 3.652 3.851 5.801-5.501.358 11.996Zm20.219 11.26-4.42-4.66 6.774-2.092-2.354 6.752Zm-2.58 7.343 3.934 4.148 6.059-18.237-4.733-4.992-18.189 5.446 3.714 3.917 3.298-1.024 7.068 7.454-1.151 3.288Z" fill="#fff"/><rect x="487.519" y="414.096" width="394.943" height="68.701" rx="34.351" transform="rotate(-89.67 487.519 414.096)" stroke="#C31E54" stroke-width="3"/><path d="M531.81 377.433c.055-9.679-4.672-11.392-6.813-11.404l-.251-.002-.032 5.626c.386.139 3.002.7 2.971 6.189-.029 4.943-2.679 6.271-4.683 6.26l-.273-.002c-2.118-.012-4.389-1.186-4.36-6.266.031-5.375 2.403-6.044 2.86-6.178l.032-5.626-.25-.002c-1.982-.011-6.683 1.488-6.739 11.305l-.005.933c-.058 10.022 5.241 11.373 8.316 11.391l.66.004c3.007.017 8.505-1.477 8.561-11.294l.006-.934Zm-.123-30.134.03-5.307-16.945-.098-.031 5.307 11.164 11.43-11.229-.065-.031 5.307 16.946.098.03-5.307-11.117-11.43 11.183.065Zm.134-23.329.031-5.307-16.946-.097-.104 18.107c8.928.051 11.273.293 12.134.981.476.39.587.892.583 1.712l-.002.341 4.213.024.009-1.48c.016-2.756-.684-3.876-1.977-4.749-1.316-.85-2.748-1.496-11.061-1.544l.047-8.063 13.073.075Zm-11.675-13.594-5.193-.03-.03 5.307 16.945.097.069-11.889c.04-7.061-2.547-8.715-5.735-8.734l-.228-.001c-3.143-.018-5.749 1.652-5.79 8.645l-.038 6.605Zm7.927.045-4.123-.023.037-6.446c.015-2.619.862-3.298 2.023-3.291h.069c1.116.007 2.046.695 2.031 3.315l-.037 6.445Zm3.926-17.324.03-5.307-6.673-.038.065-11.389 6.674.039.03-5.307-16.945-.098-.031 5.307 6.173.036-.066 11.388-6.172-.036-.031 5.307 16.946.098Zm-6.702-38.605-.037 6.423-6.337-3.18 6.374-3.243Zm6.944-3.513.033-5.717-16.998 8.967-.039 6.879 16.896 8.661.031-5.398-3.089-1.544.059-10.272 3.107-1.576Zm-5.885-22.221 6.013.035.03-5.307-16.945-.098-.08 13.894c-.033 5.648 2.668 7.372 5.333 7.387l.273.002c2.642.015 4.724-1.613 5.046-6.166l6.247 6.846.039-6.787-5.976-6.321.02-3.485Zm-3.758-.022-.048 8.268c-.009 1.526-.741 2.137-1.675 2.132l-.023-.001c-.888-.005-1.636-.601-1.627-2.15l.047-8.268 3.326.019Zm9.943-29.879.04-6.924-9.261 10.151-7.687-9.793-.039 6.742 7.011 8.718-7.061-.04-.031 5.306 16.946.098.03-5.307-7.994-.046 8.046-8.905Zm-17.142-17.435c-.062 10.728 5.284 11.966 8.313 11.983l.683.004c2.984.018 8.48-1.158 8.542-11.886l.005-.979c.062-10.682-5.42-11.944-8.404-11.961l-.683-.004c-3.029-.017-8.389 1.205-8.45 11.864l-.006.979Zm8.902-7.282c1.959.011 4.549 1.187 4.516 6.881-.033 5.74-2.704 6.841-4.64 6.83l-.274-.002c-1.936-.011-4.435-1.051-4.402-6.881.034-5.74 2.545-6.841 4.481-6.83l.319.002Zm8.427-7.735.029-5.102-11.73-.067 11.768-6.606.017-2.847-11.692-6.741 11.73.067.03-5.238-16.945-.098-.042 7.266 10.512 5.937-10.58 5.793-.043 7.539 16.946.097Zm-6.677-43.074-.037 6.423-6.336-3.18 6.373-3.243Zm6.945-3.513.032-5.717-16.997 8.968-.04 6.878 16.896 8.661.032-5.398-3.089-1.544.059-10.272 3.107-1.576Zm.039-6.903.031-5.307-6.674-.038.066-11.389 6.673.039.031-5.307-16.946-.097-.03 5.306 6.172.036-.065 11.388-6.173-.036-.03 5.307 16.945.098Zm-3.962-23.83 6.946.04.03-5.079-2.848-.016.081-14.03 2.847.016.029-5.08-6.946-.04-.016 2.734-12.846-.074-.105 18.312c7.311.042 11.091.2 12.84 1.053l-.012 2.164Zm.04-6.947c-1.636-.738-5.279-.918-8.741-.938l.047-8.314 8.746.05-.052 9.202Zm-2.637-32.706-.037 6.423-6.336-3.18 6.373-3.243Zm6.945-3.513.033-5.717-16.998 8.968-.04 6.878 16.897 8.661.031-5.398-3.089-1.544.059-10.272 3.107-1.576Z" fill="#fff"/><rect x="401.811" y="412.869" width="256.154" height="69.891" rx="34.946" transform="rotate(-90.124 401.811 412.869)" stroke="#C31E54" stroke-width="3"/><path d="m446.397 387.469-.031-14.645c-.012-5.489-2.225-7.01-4.889-7.004h-.319c-2.984.007-3.958 2.491-4.252 3.654-.252-.82-1.099-2.686-3.308-2.681l-.319.001c-2.004.004-3.869 1.352-3.859 6.203l.032 14.509 16.945-.037Zm-13.399-13.568c-.003-1.481.634-1.847 1.34-1.848h.046c.683-.002 1.367.361 1.37 1.842l.018 8.29-2.756.006-.018-8.29Zm6.354-.47c-.004-1.753.838-2.097 1.567-2.098l.091-.001c.683-.001 1.664.339 1.667 2.092l.019 8.747-3.325.007-.019-8.747Zm-9.951-9.58 16.945-.036-.039-18.085-3.94.009.028 12.846-2.779.006-.026-12.322-3.872.008.026 12.322-2.505.005-.028-12.618-3.849.009.039 17.856Zm16.873-33.581-.011-5.307-16.946.037.011 5.307 7.107-.015c.344 1.297.393 2.732.395 3.848.007 3.052-.468 4.738-3.133 4.744l-4.35.01.011 5.307 5.626-.013c4.555-.009 5.961-3.133 5.949-8.713-.005-2.209-.213-3.826-.49-5.192l5.831-.013Zm-16.963-8.256 16.945-.037-.039-18.084-3.94.008.028 12.846-2.779.006-.027-12.322-3.872.008.027 12.322-2.506.006-.027-12.618-3.849.008.039 17.857Zm11.225-33.341c-.013-6.059-2.545-7.898-5.575-7.892l-.227.001c-3.098.006-5.508 1.811-5.495 7.915l.027 12.709 16.946-.036-.012-5.307-5.648.012-.016-7.402Zm-7.432 7.418-.016-7.311c-.004-1.708.633-2.461 1.794-2.464h.068c1.162-.003 1.779.793 1.782 2.456l.016 7.311-3.644.008Zm13.023-34.001-.011-5.307-16.946.036.011 5.307 11.254 11.341-11.229.025.011 5.307 16.946-.037-.011-5.307-11.208-11.341 11.183-.024Zm-.018-8.228-.011-5.307-6.674.014-.024-11.388 6.673-.014-.011-5.307-16.946.036.012 5.307 6.172-.013.025 11.388-6.173.013.012 5.307 16.945-.036Zm-.084-39.181-.015-6.924-9.18 10.224-7.765-9.732.015 6.742 7.079 8.663-7.061.015.012 5.307 16.946-.037-.012-5.307-7.994.018 7.975-8.969Zm-.054-24.779-.011-5.307-16.946.037.012 5.307 11.253 11.341-11.229.024.012 5.307 16.945-.036-.011-5.307-11.208-11.342 11.183-.024Z" fill="#fff"/><rect x="314.998" y="412.87" width="233.926" height="69.891" rx="34.946" transform="rotate(-90.109 314.998 412.87)" stroke="#C31E54" stroke-width="3"/><path d="M341.665 373.833c.021 10.727 5.375 11.924 8.405 11.919l.683-.002c2.984-.005 8.47-1.223 8.45-11.951l-.002-.979c-.02-10.682-5.511-11.902-8.495-11.896l-.683.001c-3.03.006-8.38 1.269-8.36 11.928l.002.98Zm8.846-7.351c1.959-.004 4.558 1.153 4.569 6.847.011 5.74-2.652 6.861-4.588 6.864l-.274.001c-1.936.004-4.443-1.017-4.454-6.847-.011-5.74 2.493-6.861 4.429-6.865h.318Zm8.368-7.73-.024-12.345c-.013-7.061-2.317-8.697-5.392-8.691l-.227.001c-3.007.005-5.19 1.695-5.177 8.687l.013 7.061-2.573.005-.028-14.509-3.576.007.038 19.816 16.946-.032Zm-3.7-5.3-3.531.006-.013-7.015c-.005-2.482.655-3.19 1.679-3.192h.069c1.002-.002 1.778.703 1.782 3.185l.014 7.016Zm-13.327-37.07.011 5.33 8.231 4.767-8.212 5.277.011 6.15 11.647-8.017c.295-.205.523-.365.796-.366h.023c.205 0 .365.114.366.592l.005 2.984 4.1-.008-.006-3.326c-.007-3.257-1.078-3.938-3.929-5.618l-13.043-7.765Zm16.919-14.208-.01-5.307-16.945.032.01 5.307 7.106-.014c.344 1.298.392 2.733.394 3.849.006 3.052-.469 4.738-3.134 4.743l-4.35.008.01 5.307 5.626-.01c4.555-.009 5.961-3.132 5.951-8.712-.004-2.21-.213-3.826-.488-5.192l5.83-.011Zm-16.961-8.261 16.946-.033-.035-18.084-3.94.007.024 12.846-2.778.006-.024-12.323-3.872.008.024 12.322-2.506.005-.024-12.619-3.849.008.034 17.857Zm16.907-20.572-.01-5.307-6.674.013-.021-11.388 6.673-.013-.01-5.307-16.946.032.01 5.307 6.173-.011.021 11.388-6.172.012.01 5.306 16.946-.032Zm-.079-41.595-.01-5.307-16.946.033.01 5.307 11.251 11.344-11.229.021.01 5.307 16.946-.032-.011-5.307-11.204-11.344 11.183-.022Zm-16.961-8.264 16.945-.032-.034-18.084-3.94.007.024 12.846-2.779.005-.023-12.322-3.872.008.023 12.322-2.505.004-.024-12.618-3.849.008.034 17.856Z" fill="#fff"/></svg></svg>